<svg width="696" height="598" viewBox="0 0 696 598" fill="none" xmlns="http://www.w3.org/2000/svg">
<path d="M380.161 8.76921L404.335 3.3858C432.019 -2.77941 459.33 15.2641 465.335 43.6872L570.578 541.828L496.277 558.375L380.161 8.76921Z" fill="url(#paint0_linear_208_510)"/>
<path fill-rule="evenodd" clip-rule="evenodd" d="M58.6608 437.913L9 529.5C-3.57889 552.352 -2.83603 578.875 19.9338 592.086C42.7037 605.297 70.537 594.083 83.116 571.231L150.495 448.824L271.522 228.958L308.71 403.051C314.384 429.61 339.886 444.407 364.975 435.696C389.017 427.348 403.841 400.417 398.404 374.965L336.384 84.6269C330.71 58.0673 309.043 39.4207 290.398 44.8844C278.451 48.3856 268.325 56.5722 262.208 67.6753L124.003 318.535L72.6958 411.665C68 420.5 65 426 58.6608 437.913Z" fill="url(#paint1_linear_208_510)"/>
<path fill-rule="evenodd" clip-rule="evenodd" d="M451.36 343.708L575.198 315.696C658.192 296.922 710.649 212.629 692.364 127.42L688.649 110.11C672.415 34.4615 599.523 -13.3521 525.841 3.31488C448.135 20.8919 399.021 99.8142 416.142 179.593L451.36 343.708ZM584.027 227.664C610.124 210.245 624.319 177.468 617.226 144.416L613.512 127.106C606.42 94.0618 574.581 73.1763 542.395 80.4566C506.187 88.647 483.301 125.422 491.279 162.597L509.943 249.57L558.644 238.554C567.948 236.449 576.484 232.698 584.027 227.664Z" fill="url(#paint2_linear_208_510)"/>
<defs>
<linearGradient id="paint0_linear_208_510" x1="347" y1="0" x2="347" y2="597.73" gradientUnits="userSpaceOnUse">
<stop stop-color="#FAF7FE"/>
<stop offset="1" stop-color="#EFEBFE"/>
</linearGradient>
<linearGradient id="paint1_linear_208_510" x1="347" y1="0" x2="347" y2="597.73" gradientUnits="userSpaceOnUse">
<stop stop-color="#FAF7FE"/>
<stop offset="1" stop-color="#EFEBFE"/>
</linearGradient>
<linearGradient id="paint2_linear_208_510" x1="347" y1="0" x2="347" y2="597.73" gradientUnits="userSpaceOnUse">
<stop stop-color="#FAF7FE"/>
<stop offset="1" stop-color="#EFEBFE"/>
</linearGradient>
</defs>
</svg>
