<svg width="258" height="57" viewBox="0 0 258 57" fill="none" xmlns="http://www.w3.org/2000/svg">
<g clip-path="url(#clip0_8_224)">
<g clip-path="url(#clip1_8_224)">
<path d="M0.621653 16.7744C-0.166161 13.0565 2.20915 9.40389 5.92706 8.61607L38.4215 1.73059C42.1394 0.942777 45.792 3.31809 46.5798 7.036L53.4653 39.5304C54.2531 43.2483 51.8778 46.9009 48.1599 47.6888L15.6655 54.5742C11.9476 55.3621 8.29495 52.9867 7.50713 49.2688L0.621653 16.7744Z" fill="#5037BF"/>
<mask id="mask0_8_224" style="mask-type:alpha" maskUnits="userSpaceOnUse" x="0" y="1" width="54" height="54">
<rect x="-0.802856" y="10.0411" width="46.9766" height="46.9766" rx="6.88134" transform="rotate(-11.96 -0.802856 10.0411)" fill="#D9D9D9"/>
</mask>
<g mask="url(#mask0_8_224)">
<path d="M27.0437 9.53963L29.1523 9.08225C31.5672 8.55844 33.9494 10.0914 34.4732 12.5063L43.6534 54.8289L37.1722 56.2347L27.0437 9.53963Z" fill="white"/>
<path fill-rule="evenodd" clip-rule="evenodd" d="M-1.22854 45.5457L-5.70318 53.4635C-6.80041 55.405 -6.36422 57.9764 -4.37806 59.0988C-2.3919 60.2213 0.0359373 59.2685 1.13317 57.3269L7.0105 46.9271L17.5673 28.2471L20.8112 43.0382C21.3061 45.2947 23.5306 46.5519 25.719 45.8118C27.8162 45.1025 29.1093 42.8145 28.635 40.652L23.2251 15.9846C22.7302 13.728 20.8403 12.1438 19.2139 12.608C18.1718 12.9055 17.2885 13.601 16.7549 14.5443L4.69967 35.8576L0.224239 43.77C-0.166307 44.4605 -0.660823 45.0552 -1.22854 45.5457Z" fill="white"/>
<path d="M42.6123 29.0624C46.232 28.2649 48.5199 24.684 47.7224 21.0643L47.3983 19.5936C46.7798 16.7862 44.0025 15.0117 41.195 15.6303Lnan nanL41.195 15.6303C38.0367 16.3261 36.0404 19.4506 36.7362 22.609L38.3643 29.9983L42.6123 29.0624Z" fill="#32219A"/>
<path fill-rule="evenodd" clip-rule="evenodd" d="M33.2542 37.9964L44.0563 35.6164C51.2957 34.0214 55.8714 26.8597 54.2764 19.6203L53.9524 18.1496C52.5363 11.7225 46.1782 7.66018 39.751 9.07622C32.973 10.5696 28.6888 17.2749 30.1822 24.053L33.2542 37.9964ZM44.8264 28.1371C47.1028 26.6572 48.341 23.8725 47.7224 21.0643L47.3983 19.5936C46.7798 16.7862 44.0025 15.0117 41.195 15.6303C38.0367 16.3261 36.0404 19.4506 36.7362 22.609L38.3643 29.9983L42.6123 29.0624C43.4239 28.8836 44.1685 28.5648 44.8264 28.1371Z" fill="white"/>
</g>
</g>
<path d="M240.753 44.7074L244.785 35.8365H243.733L236.966 19.6025H241.84L246.714 31.8394L251.798 19.6025H256.566L245.522 44.7074H240.753Z" fill="#5037BF"/>
<path d="M225.952 37.4146C224.456 37.4146 223.229 37.1808 222.27 36.7133C221.312 36.2224 220.599 35.5796 220.131 34.7849C219.664 33.9901 219.43 33.1135 219.43 32.1552C219.43 30.5423 220.061 29.2333 221.323 28.2282C222.586 27.223 224.479 26.7205 227.004 26.7205H231.421V26.2997C231.421 25.1076 231.083 24.231 230.405 23.67C229.727 23.109 228.885 22.8285 227.88 22.8285C226.969 22.8285 226.174 23.0506 225.496 23.4947C224.818 23.9155 224.397 24.5466 224.234 25.3881H219.851C219.968 24.1258 220.388 23.0272 221.113 22.0922C221.861 21.1572 222.819 20.4443 223.988 19.9534C225.157 19.4391 226.466 19.182 227.915 19.182C230.393 19.182 232.345 19.8014 233.771 21.0403C235.197 22.2792 235.909 24.0323 235.909 26.2997V36.9938H232.088L231.667 34.1888C231.153 35.1238 230.428 35.8952 229.493 36.5029C228.581 37.1107 227.401 37.4146 225.952 37.4146ZM226.969 33.9083C228.254 33.9083 229.248 33.4876 229.949 32.646C230.673 31.8045 231.129 30.7644 231.316 29.5255H227.494C226.302 29.5255 225.449 29.7475 224.935 30.1917C224.421 30.6124 224.164 31.1384 224.164 31.7695C224.164 32.4474 224.421 32.9733 224.935 33.3473C225.449 33.7213 226.127 33.9083 226.969 33.9083Z" fill="#5037BF"/>
<path d="M200.89 36.9937V12.4498H209.972C211.935 12.4498 213.56 12.7771 214.845 13.4316C216.131 14.0861 217.089 14.986 217.72 16.1314C218.352 17.2768 218.667 18.5624 218.667 19.9883C218.667 21.3441 218.363 22.5946 217.756 23.74C217.148 24.862 216.201 25.7736 214.915 26.4749C213.63 27.1528 211.982 27.4917 209.972 27.4917H205.378V36.9937H200.89ZM205.378 23.8452H209.691C211.257 23.8452 212.379 23.5062 213.057 22.8284C213.758 22.1271 214.109 21.1804 214.109 19.9883C214.109 18.7728 213.758 17.8261 213.057 17.1482C212.379 16.447 211.257 16.0963 209.691 16.0963H205.378V23.8452Z" fill="#5037BF"/>
<path d="M186.938 37.4145C185.302 37.4145 183.841 37.0171 182.555 36.2224C181.27 35.4276 180.253 34.3407 179.505 32.9616C178.757 31.5824 178.383 30.0163 178.383 28.2632C178.383 26.51 178.757 24.9556 179.505 23.5998C180.253 22.2207 181.27 21.1455 182.555 20.3741C183.841 19.5793 185.302 19.1819 186.938 19.1819C188.247 19.1819 189.392 19.4274 190.374 19.9183C191.356 20.4091 192.151 21.0987 192.758 21.987V11.7487H197.246V36.9938H193.249L192.758 34.5043C192.197 35.2757 191.449 35.9536 190.514 36.538C189.603 37.1223 188.411 37.4145 186.938 37.4145ZM187.885 33.4875C189.334 33.4875 190.514 33.0083 191.426 32.0499C192.361 31.0682 192.828 29.8176 192.828 28.2982C192.828 26.7788 192.361 25.54 191.426 24.5816C190.514 23.5998 189.334 23.109 187.885 23.109C186.459 23.109 185.278 23.5881 184.343 24.5465C183.408 25.5049 182.941 26.7438 182.941 28.2632C182.941 29.7826 183.408 31.0331 184.343 32.0149C185.278 32.9966 186.459 33.4875 187.885 33.4875Z" fill="#5037BF"/>
<path d="M158.643 36.9938V19.6027H162.605L162.956 22.548C163.493 21.5195 164.265 20.7014 165.27 20.0936C166.298 19.4859 167.502 19.182 168.881 19.182C171.032 19.182 172.703 19.8599 173.895 21.2156C175.087 22.5714 175.683 24.5583 175.683 27.1763V36.9938H171.195V27.597C171.195 26.101 170.891 24.9556 170.284 24.1609C169.676 23.3661 168.729 22.9688 167.444 22.9688C166.181 22.9688 165.141 23.4129 164.323 24.3011C163.528 25.1894 163.131 26.4283 163.131 28.0178V36.9938H158.643Z" fill="#5037BF"/>
<path d="M147.169 37.4146C145.416 37.4146 143.861 37.0406 142.505 36.2926C141.15 35.5446 140.086 34.4927 139.315 33.1369C138.543 31.7812 138.158 30.215 138.158 28.4385C138.158 26.6386 138.532 25.0375 139.28 23.635C140.051 22.2324 141.103 21.1455 142.435 20.3741C143.791 19.5794 145.381 19.182 147.204 19.182C148.91 19.182 150.418 19.556 151.727 20.304C153.036 21.052 154.053 22.0805 154.777 23.3895C155.525 24.6751 155.899 26.1127 155.899 27.7022C155.899 27.9593 155.888 28.2282 155.864 28.5087C155.864 28.7892 155.853 29.0813 155.829 29.3852H142.611C142.704 30.741 143.172 31.8045 144.013 32.5759C144.878 33.3473 145.918 33.733 147.134 33.733C148.045 33.733 148.805 33.5343 149.413 33.1369C150.044 32.7162 150.511 32.1785 150.815 31.524H155.373C155.046 32.6227 154.497 33.6278 153.726 34.5394C152.978 35.4277 152.043 36.1289 150.921 36.6432C149.822 37.1574 148.571 37.4146 147.169 37.4146ZM147.204 22.8285C146.105 22.8285 145.135 23.1441 144.294 23.7752C143.452 24.383 142.915 25.318 142.681 26.5802H151.341C151.271 25.4348 150.85 24.5232 150.079 23.8453C149.308 23.1675 148.349 22.8285 147.204 22.8285Z" fill="#5037BF"/>
<path d="M116.877 44.7076V19.6027H120.874L121.365 22.0922C121.926 21.3208 122.662 20.6429 123.574 20.0586C124.509 19.4742 125.713 19.182 127.185 19.182C128.822 19.182 130.283 19.5794 131.568 20.3741C132.854 21.1689 133.871 22.2558 134.619 23.635C135.367 25.0141 135.741 26.5802 135.741 28.3333C135.741 30.0865 135.367 31.6526 134.619 33.0317C133.871 34.3875 132.854 35.4627 131.568 36.2575C130.283 37.0289 128.822 37.4146 127.185 37.4146C125.876 37.4146 124.731 37.1691 123.749 36.6783C122.768 36.1874 121.973 35.4978 121.365 34.6096V44.7076H116.877ZM126.239 33.4876C127.665 33.4876 128.845 33.0084 129.78 32.05C130.715 31.0916 131.183 29.8527 131.183 28.3333C131.183 26.814 130.715 25.5634 129.78 24.5816C128.845 23.5999 127.665 23.109 126.239 23.109C124.79 23.109 123.597 23.5999 122.662 24.5816C121.751 25.54 121.295 26.7789 121.295 28.2983C121.295 29.8177 121.751 31.0682 122.662 32.05C123.597 33.0084 124.79 33.4876 126.239 33.4876Z" fill="#5037BF"/>
<path d="M95.0354 44.7076V19.6027H99.0325L99.5234 22.0922C100.084 21.3208 100.821 20.6429 101.732 20.0586C102.667 19.4742 103.871 19.182 105.344 19.182C106.98 19.182 108.441 19.5794 109.727 20.3741C111.012 21.1689 112.029 22.2558 112.777 23.635C113.525 25.0141 113.899 26.5802 113.899 28.3333C113.899 30.0865 113.525 31.6526 112.777 33.0317C112.029 34.3875 111.012 35.4627 109.727 36.2575C108.441 37.0289 106.98 37.4146 105.344 37.4146C104.035 37.4146 102.889 37.1691 101.908 36.6783C100.926 36.1874 100.131 35.4978 99.5234 34.6096V44.7076H95.0354ZM104.397 33.4876C105.823 33.4876 107.003 33.0084 107.938 32.05C108.873 31.0916 109.341 29.8527 109.341 28.3333C109.341 26.814 108.873 25.5634 107.938 24.5816C107.003 23.5999 105.823 23.109 104.397 23.109C102.948 23.109 101.756 23.5999 100.821 24.5816C99.9091 25.54 99.4533 26.7789 99.4533 28.2983C99.4533 29.8177 99.9091 31.0682 100.821 32.05C101.756 33.0084 102.948 33.4876 104.397 33.4876Z" fill="#5037BF"/>
<path d="M70.0092 36.9937L78.9852 12.4498H84.0342L93.0102 36.9937H88.2417L86.2782 31.3135H76.7061L74.7075 36.9937H70.0092ZM77.9333 27.8073H85.051L81.4746 17.604L77.9333 27.8073Z" fill="#5037BF"/>
</g>
<defs>
<clipPath id="clip0_8_224">
<rect width="257.243" height="56.272" fill="white"/>
</clipPath>
<clipPath id="clip1_8_224">
<rect width="55.7922" height="55.9218" fill="white" transform="translate(-0.900391 0.304008)"/>
</clipPath>
</defs>
</svg>
